<svg width="28" height="28" viewBox="0 0 28 28" fill="none" xmlns="http://www.w3.org/2000/svg">
<path d="M21.4667 4.08333C21.4667 3.76117 21.7278 3.5 22.05 3.5H25.0833C25.4055 3.5 25.6667 3.76117 25.6667 4.08333V7.11667C25.6667 7.43883 25.4055 7.7 25.0833 7.7H22.05C21.7278 7.7 21.4667 7.43883 21.4667 7.11667V4.08333Z" fill="#01A3B6"/>
<path d="M19.95 3.5H16.9167C16.5945 3.5 16.3333 3.76117 16.3333 4.08333V7.11667C16.3333 7.43883 16.5945 7.7 16.9167 7.7H19.95C20.2722 7.7 20.5333 7.43883 20.5333 7.11667V4.08333C20.5333 3.76117 20.2722 3.5 19.95 3.5Z" fill="#01A3B6"/>
<path d="M25.0833 8.75H22.05C21.7278 8.75 21.4667 9.01117 21.4667 9.33333V12.3667C21.4667 12.6888 21.7278 12.95 22.05 12.95H25.0833C25.4055 12.95 25.6667 12.6888 25.6667 12.3667V9.33333C25.6667 9.01117 25.4055 8.75 25.0833 8.75Z" fill="#01A3B6"/>
<path d="M19.95 8.75H16.9167C16.5945 8.75 16.3333 9.01117 16.3333 9.33333V12.3667C16.3333 12.6888 16.5945 12.95 16.9167 12.95H19.95C20.2722 12.95 20.5333 12.6888 20.5333 12.3667V9.33333C20.5333 9.01117 20.2722 8.75 19.95 8.75Z" fill="#01A3B6"/>
<path fill-rule="evenodd" clip-rule="evenodd" d="M8.45833 22.4583H19.5417V24.2083H8.45833V22.4583Z" fill="#666666"/>
<path fill-rule="evenodd" clip-rule="evenodd" d="M2.625 4.66667C2.625 4.18342 3.01675 3.79167 3.5 3.79167H14V5.54167H4.375V18.375H23.625V14.875H25.375V19.25C25.375 19.7333 24.9832 20.125 24.5 20.125H3.5C3.01675 20.125 2.625 19.7333 2.625 19.25V4.66667Z" fill="#666666"/>
<path d="M14.1458 22.75C14.8707 22.75 15.4583 22.1624 15.4583 21.4375C15.4583 20.7126 14.8707 20.125 14.1458 20.125C13.421 20.125 12.8333 20.7126 12.8333 21.4375C12.8333 22.1624 13.421 22.75 14.1458 22.75Z" fill="#666666"/>
</svg>
