<svg width="28" height="28" viewBox="0 0 28 28" fill="none" xmlns="http://www.w3.org/2000/svg">
<path d="M12.6875 22.75C13.4124 22.75 14 22.1624 14 21.4375C14 20.7126 13.4124 20.125 12.6875 20.125C11.9626 20.125 11.375 20.7126 11.375 21.4375C11.375 22.1624 11.9626 22.75 12.6875 22.75Z" fill="#666666"/>
<path d="M18.375 26.25H7C6.53601 26.2495 6.09116 26.065 5.76307 25.7369C5.43499 25.4088 5.25046 24.964 5.25 24.5V3.5C5.25046 3.03601 5.43499 2.59116 5.76307 2.26307C6.09116 1.93499 6.53601 1.75046 7 1.75H18.375V3.5H7V24.5H18.375V17.5H20.125V24.5C20.1245 24.964 19.94 25.4088 19.6119 25.7369C19.2838 26.065 18.839 26.2495 18.375 26.25Z" fill="#666666"/>
<path d="M15.1666 5.25H18.2C18.5221 5.25 18.7833 5.51117 18.7833 5.83333V8.86667C18.7833 9.18883 18.5221 9.45 18.2 9.45H15.1666C14.8445 9.45 14.5833 9.18883 14.5833 8.86667V5.83333C14.5833 5.51117 14.8445 5.25 15.1666 5.25Z" fill="#01A3B6"/>
<path d="M20.3 5.25C19.9778 5.25 19.7166 5.51117 19.7166 5.83333V8.86667C19.7166 9.18883 19.9778 9.45 20.3 9.45H23.3333C23.6555 9.45 23.9166 9.18883 23.9166 8.86667V5.83333C23.9166 5.51117 23.6555 5.25 23.3333 5.25H20.3Z" fill="#01A3B6"/>
<path d="M23.3333 10.5H20.3C19.9778 10.5 19.7166 10.7612 19.7166 11.0833V14.1167C19.7166 14.4388 19.9778 14.7 20.3 14.7H23.3333C23.6555 14.7 23.9166 14.4388 23.9166 14.1167V11.0833C23.9166 10.7612 23.6555 10.5 23.3333 10.5Z" fill="#01A3B6"/>
<path d="M15.1666 10.5H18.2C18.5221 10.5 18.7833 10.7612 18.7833 11.0833V14.1167C18.7833 14.4388 18.5221 14.7 18.2 14.7H15.1666C14.8445 14.7 14.5833 14.4388 14.5833 14.1167V11.0833C14.5833 10.7612 14.8445 10.5 15.1666 10.5Z" fill="#01A3B6"/>
</svg>
